<svg version="1.1" id="Layer_1" xmlns="http://www.w3.org/2000/svg" xmlns:xlink="http://www.w3.org/1999/xlink" x="0px" y="0px"
	 width="100%" viewBox="0 0 480 800" enable-background="new 0 0 480 800" xml:space="preserve">
<path fill="#000000" opacity="1.000000" stroke="none" 
	d="
M162.005814,637.761169 
	C165.037170,633.450378 164.897522,629.516724 161.535446,625.830627 
	C156.759506,620.594543 156.859253,619.042236 162.349136,614.386963 
	C165.002747,612.136780 165.509308,606.219177 162.529816,603.536926 
	C158.950455,600.314636 158.348480,596.568054 158.689133,592.275574 
	C159.005081,588.294678 159.044815,584.257019 159.776108,580.350952 
	C161.454391,571.386963 158.526016,563.793396 153.504059,556.673523 
	C146.270874,546.418457 139.569046,535.845581 137.337173,523.236816 
	C136.238235,517.028442 135.618652,510.692200 135.340912,504.389221 
	C134.339508,481.664215 124.311050,462.147766 113.831345,442.772522 
	C98.146431,413.773804 82.413696,384.794769 68.412643,354.932770 
	C57.977551,332.676392 52.760880,309.035309 50.936764,284.608368 
	C50.647026,280.728485 50.896164,276.808350 51.481636,272.882050 
	C55.015865,280.952545 56.454071,289.471039 56.859833,297.968384 
	C57.321575,307.638123 60.004623,316.677124 63.112419,325.571472 
	C66.393814,334.962646 68.498825,344.761993 72.922279,353.780975 
	C74.236824,356.461182 75.239357,359.245361 77.057457,361.691040 
	C78.949623,364.236359 80.718742,367.068146 80.972427,370.241211 
	C81.624214,378.393738 86.852112,384.514526 91.065437,390.558655 
	C95.010406,396.217834 99.584312,401.553284 103.129951,407.563232 
	C107.517555,415.000397 111.774750,422.515656 116.007378,430.042664 
	C120.075310,437.276855 123.997902,444.519958 130.392258,450.182007 
	C133.340958,452.793030 135.072037,456.659821 136.617035,460.347229 
	C141.913757,472.988678 145.381653,486.085815 147.133224,499.734039 
	C148.217941,508.186096 149.579178,516.878235 157.157578,522.696045 
	C159.477097,524.476685 159.943878,526.583923 158.011917,529.142151 
	C155.077240,533.028198 156.354599,536.517090 158.407700,540.647156 
	C163.554550,551.000671 172.724197,551.975525 182.368500,551.859253 
	C187.534485,551.796936 192.622711,551.583374 197.775330,552.438538 
	C204.051392,553.480164 207.094559,550.849548 206.645828,544.463928 
	C205.277298,524.989746 206.193329,505.496155 205.786514,486.017059 
	C205.588058,476.515228 208.585983,467.224731 207.588989,457.667847 
	C206.709610,449.238251 204.427887,440.989105 204.615433,432.412048 
	C204.717361,427.750336 205.331604,423.726105 209.311768,420.412384 
	C212.662170,417.623016 210.824371,413.486542 209.976685,410.098419 
	C206.607300,396.631439 200.735153,384.087646 195.180557,371.437286 
	C187.083405,352.996338 178.908630,334.589050 170.919998,316.101257 
	C169.277130,312.299194 168.145172,308.249969 167.063599,304.237579 
	C165.166565,297.200195 158.795151,292.680084 156.848206,285.682312 
	C156.407623,284.098816 155.351456,282.694183 154.831924,281.123444 
	C153.832916,278.103027 154.564041,276.729797 158.095047,275.498352 
	C171.967804,270.660217 186.396561,270.297729 200.619812,269.421082 
	C202.322418,266.663361 198.759659,264.700806 200.189056,261.697296 
	C202.324371,265.099579 202.805771,269.520477 207.794205,270.005432 
	C209.553528,270.176483 211.376587,270.792236 213.136841,270.464203 
	C226.442047,267.984924 239.293594,271.013153 252.172897,273.598785 
	C256.574890,274.482513 260.938263,275.590851 265.272400,276.769043 
	C268.153961,277.552399 270.175415,277.087952 270.772461,273.853729 
	C271.354034,270.703247 272.944550,268.677002 276.817291,268.789215 
	C276.817291,265.578186 276.817291,262.659363 276.817291,259.740509 
	C278.572693,263.583496 279.421265,267.485413 279.218170,271.539520 
	C279.050690,274.883118 280.209839,275.935699 283.709167,275.175323 
	C295.325378,272.651184 306.930206,271.894745 318.570648,275.576263 
	C321.646210,276.548950 321.874634,278.498718 321.171478,280.426086 
	C319.212280,285.796539 318.176758,291.569214 313.791779,295.939331 
	C311.194763,298.527557 310.216034,302.399292 309.496338,305.916229 
	C306.368591,321.200897 299.681335,335.247345 294.685608,349.878784 
	C288.442474,368.163544 280.073822,385.641693 274.284302,404.089355 
	C273.439850,406.780090 273.003052,409.596375 272.231964,412.313202 
	C271.274139,415.687988 271.666382,417.955811 275.142426,420.140045 
	C279.143005,422.653839 278.273926,427.338837 278.001923,431.531067 
	C277.272125,442.778290 274.214478,453.999451 276.404205,465.288666 
	C281.323792,490.651550 277.585693,516.332275 279.641327,541.785461 
	C279.667999,542.116028 279.623810,542.451721 279.628510,542.784790 
	C279.758240,552.014465 280.281525,552.538879 289.603333,552.804138 
	C297.046326,553.015930 304.435577,551.835571 311.844574,551.472900 
	C319.073914,551.118958 325.215057,547.100891 329.015381,539.661499 
	C332.049072,533.722778 333.629608,527.257690 336.916473,521.467712 
	C338.881104,518.006897 338.035950,513.934387 337.910431,510.154785 
	C337.525391,498.560394 340.079712,487.359100 342.494934,476.193512 
	C343.818909,470.072632 347.319916,464.581635 349.755768,458.777832 
	C357.793243,439.626984 367.276123,421.182343 377.130524,402.861664 
	C385.521393,387.261871 394.740265,372.119476 402.142548,355.835602 
	C408.252380,342.395020 411.834229,328.353577 417.115326,314.800507 
	C419.965302,307.486481 419.990234,299.586731 419.332916,291.630157 
	C418.413086,280.495605 420.544525,269.370728 420.583466,258.228119 
	C420.670441,233.350983 413.964050,210.399002 400.901672,189.149567 
	C391.721313,174.215256 381.609253,159.962646 369.856323,147.045547 
	C360.371429,136.621155 349.894684,127.361595 336.745239,121.028687 
	C326.789337,116.233826 315.762787,113.107025 307.423248,105.008385 
	C304.233459,101.910744 299.128082,103.383072 294.968628,102.067474 
	C284.694519,98.817886 274.399048,94.783333 263.443756,95.168015 
	C242.042999,95.919479 220.514450,93.427872 199.250000,98.105873 
	C181.935562,101.914909 165.632523,107.594742 150.200012,116.773216 
	C127.674545,130.170212 105.276054,143.368057 89.280800,164.892899 
	C88.553375,165.871780 87.875290,167.192215 85.540634,166.924774 
	C88.122856,162.952225 90.239456,159.046173 92.958519,155.617966 
	C111.208374,132.608521 134.032150,115.491966 160.637375,103.198502 
	C189.959763,89.649506 220.862946,83.917778 252.905487,85.842583 
	C287.631348,87.928574 319.855347,98.712692 348.627991,118.436432 
	C394.783478,150.076126 421.108551,194.471802 428.884216,249.413879 
	C434.482758,288.972504 427.332733,326.861420 409.522522,362.849030 
	C397.844360,386.446014 384.562195,409.178864 372.876678,432.745544 
	C364.691681,449.252502 355.090240,465.168762 350.971375,483.499817 
	C348.619873,493.965424 348.176880,504.595428 347.502258,515.179749 
	C346.676056,528.141602 343.593872,540.187256 335.693481,550.613647 
	C331.638763,555.964722 328.894531,562.245728 322.903412,566.305115 
	C319.669464,568.496338 321.141998,573.101685 322.096893,576.593994 
	C322.701874,578.806641 323.999329,580.839966 325.060181,582.915833 
	C327.192963,587.089294 326.379425,590.505981 322.819794,593.565613 
	C318.473114,597.301758 318.472351,598.949341 322.270538,603.521179 
	C326.812683,608.988464 326.619812,611.980103 321.430145,616.558167 
	C317.998779,619.585144 317.939880,622.666382 321.251312,625.916077 
	C326.929993,631.488892 326.922668,634.016357 321.212433,639.395996 
	C317.542969,642.853027 317.600098,645.857971 321.392303,648.851501 
	C326.445831,652.840759 326.523285,657.479980 321.607422,661.744263 
	C316.481964,666.190430 316.346069,667.539307 321.302521,672.434509 
	C324.579651,675.671204 324.200592,678.609070 321.073700,681.404846 
	C312.032562,689.488464 303.070282,697.724243 294.235870,705.959900 
	C286.518860,713.153931 277.394714,719.639099 272.475067,729.669373 
	C271.246643,732.173767 268.536133,732.663635 266.025757,732.864380 
	C250.066818,734.140442 234.092636,734.016724 218.128159,733.024353 
	C213.945404,732.764404 211.343277,730.619690 208.799377,726.794800 
	C204.147736,719.800781 198.426056,713.440125 191.187546,708.696838 
	C182.208893,702.813232 174.804169,695.123657 167.590607,687.273682 
	C165.696991,685.213074 165.257401,682.480042 165.643204,679.745544 
	C166.143829,676.197327 164.781998,673.773071 161.919006,671.679199 
	C157.113861,668.164856 157.036362,664.855591 161.279541,660.633301 
	C165.600464,656.333679 165.624283,652.521484 161.357285,648.198364 
	C157.343033,644.131287 157.428253,641.394165 162.005814,637.761169 
M218.242355,308.544952 
	C220.926727,319.001862 223.628723,329.454285 226.284668,339.918427 
	C227.075989,343.036163 228.616898,345.244781 232.193771,344.441345 
	C238.138016,343.106171 244.177017,343.433197 250.114914,343.735779 
	C255.705734,344.020630 257.628540,341.544708 258.858337,336.607941 
	C262.870972,320.499695 266.097717,304.148102 272.177399,288.630035 
	C273.947937,284.110809 272.350067,282.164551 268.243195,281.145782 
	C260.171539,279.143494 252.129684,277.007416 244.016449,275.190277 
	C235.356216,273.250580 226.530884,273.024109 217.684097,273.249817 
	C213.905212,273.346222 211.292114,274.223328 212.879608,278.857910 
	C213.087692,279.465424 213.039978,280.194550 211.893875,280.317261 
	C209.870636,279.138336 210.933441,275.019226 207.405197,274.817383 
	C206.130249,277.537720 209.459747,278.818420 209.262924,281.127045 
	C205.897873,281.681732 205.429443,279.195099 204.668045,277.321930 
	C203.596497,274.685669 201.878464,273.212036 198.984818,273.400452 
	C191.858490,273.864532 184.715546,274.186737 177.617813,274.932678 
	C173.520401,275.363342 169.412292,275.991669 165.430954,277.304352 
	C161.708450,278.531708 160.979599,280.458954 162.522171,284.064148 
	C175.291931,313.908539 187.984253,343.783661 201.384476,373.356018 
	C207.209457,386.210876 213.389984,398.986816 215.574753,413.183594 
	C215.972397,415.767548 216.750366,418.945496 220.224396,418.713226 
	C223.751144,418.477356 227.204208,417.229187 228.405243,413.287567 
	C228.878754,411.733582 228.854614,409.990692 228.850937,408.334290 
	C228.818085,393.506531 228.511612,378.674530 228.795532,363.853516 
	C228.896790,358.566986 227.166962,355.555969 222.053207,354.674530 
	C219.186783,354.180450 217.408768,352.636261 217.206635,349.826508 
	C216.995941,346.897705 218.799164,345.228027 221.586395,344.660065 
	C224.025055,344.163116 224.972092,343.015320 224.140732,340.419281 
	C218.569885,323.023804 216.288116,304.669189 208.804077,287.823151 
	C208.205780,286.476410 207.142380,284.993622 208.691025,282.652893 
	C213.075073,291.003265 215.701813,299.317596 218.242355,308.544952 
M254.586258,381.803894 
	C254.728973,385.124664 254.926559,388.444183 255.003113,391.766479 
	C255.168030,398.925964 255.228073,406.087982 255.415039,413.246765 
	C255.525894,417.491852 258.497253,418.869965 262.065613,419.291107 
	C265.758270,419.726929 266.492828,416.973145 266.873383,414.227112 
	C267.792633,407.593384 269.550385,401.177887 272.039734,394.995667 
	C285.899658,360.575012 298.604095,325.717621 311.448700,290.913757 
	C312.859406,287.091370 314.987854,283.412109 314.922333,279.079590 
	C303.052032,273.792145 291.581055,277.792816 280.127441,279.946136 
	C277.589752,280.423218 276.350220,282.959320 275.436432,285.409821 
	C269.035034,302.576782 265.318909,320.501068 260.549561,338.126801 
	C259.937775,340.387756 259.663422,342.958527 262.386688,344.230927 
	C264.433136,345.187073 266.521667,345.982117 266.231689,348.726074 
	C265.918274,351.692047 263.745575,352.869843 261.134003,353.421844 
	C256.451080,354.411621 254.579132,357.484039 254.594482,362.039398 
	C254.615784,368.356506 254.601868,374.673737 254.586258,381.803894 
M239.858856,437.681915 
	C245.361130,438.800812 246.785751,445.644562 252.424911,446.667542 
	C252.949295,446.762695 253.342773,447.971344 253.649414,448.723175 
	C253.824219,449.151794 253.679428,449.703735 253.713730,450.197723 
	C253.998016,454.292572 258.883301,457.984161 264.165466,457.816650 
	C269.244690,457.655518 268.299042,453.530060 268.611816,450.410339 
	C268.810059,448.432465 268.735260,446.412262 268.620605,444.420410 
	C267.877289,431.507294 262.983856,427.777527 251.055435,425.405029 
	C242.057495,423.615448 233.005325,424.405273 224.081238,426.365387 
	C221.096237,427.020966 218.150696,428.159393 217.247086,431.466949 
	C215.546600,437.691467 214.974075,444.134308 214.828842,450.536285 
	C214.762878,453.443970 214.805450,457.234375 218.589554,458.453979 
	C221.595352,459.422729 225.754059,455.981476 226.833054,452.068054 
	C227.098297,451.105988 227.451996,450.152435 227.579803,449.170837 
	C228.466034,442.363861 232.046509,438.310944 239.858856,437.681915 
M253.145508,547.021118 
	C253.430557,552.526611 256.902374,553.358826 261.466766,552.829163 
	C266.115204,552.289612 268.193359,550.049500 267.694733,545.167419 
	C266.802612,536.432800 266.976257,527.631348 266.500641,518.862488 
	C265.898315,507.757751 266.512421,496.587402 266.589111,485.445251 
	C266.615570,481.601318 266.129700,477.816620 265.168579,474.093750 
	C264.287598,470.681244 261.463104,470.029968 258.605469,469.737885 
	C255.602417,469.430939 254.167496,471.441223 253.236862,473.986816 
	C252.357758,476.391541 252.349106,478.870453 252.377365,481.373718 
	C252.621109,502.963287 252.851074,524.553040 253.145508,547.021118 
M236.199890,535.378479 
	C236.941360,539.624573 234.541306,543.892212 236.412048,548.175354 
	C237.286377,550.177124 238.217438,551.786255 240.677261,551.536499 
	C243.241180,551.276184 244.444580,549.657288 244.636703,547.201660 
	C244.727310,546.043518 244.754333,544.877686 244.752533,543.715393 
	C244.721375,523.639587 244.659332,503.563721 244.663788,483.487885 
	C244.664566,479.982788 244.257629,477.287689 239.691742,477.190521 
	C235.087143,477.092560 235.228867,479.934967 235.173889,483.097168 
	C234.876236,500.215790 235.443451,517.315918 236.199890,535.378479 
M226.512344,477.587555 
	C225.068451,474.857452 222.795883,475.054962 220.528137,476.125641 
	C217.184357,477.704346 217.210327,480.886505 217.448456,483.887512 
	C218.695175,499.598816 218.485107,515.332581 218.488205,531.070557 
	C218.489288,536.529114 219.134460,542.004639 219.775543,547.438232 
	C220.065857,549.898743 221.518097,551.965027 224.444153,551.532715 
	C227.145340,551.133606 227.626877,548.862427 227.580292,546.592102 
	C227.502014,542.776733 227.153702,538.965576 227.120987,535.150879 
	C226.958786,516.228333 226.862686,497.305206 226.512344,477.587555 
M236.254623,385.500214 
	C236.248734,391.981323 236.262527,398.462494 236.228897,404.943481 
	C236.211243,408.342072 237.704666,410.413300 241.226913,410.371002 
	C244.541473,410.331238 246.468231,408.564667 246.623978,405.129272 
	C246.654068,404.465576 246.658188,403.800323 246.658142,403.135773 
	C246.657227,390.173340 246.662582,377.210876 246.637772,364.248505 
	C246.635239,362.927734 246.689301,361.531464 246.302353,360.300598 
	C245.021454,356.226288 241.532837,357.478943 238.732208,357.548096 
	C235.911850,357.617798 235.103821,359.695251 235.548660,362.120850 
	C236.911743,369.554016 235.979156,377.043793 236.254623,385.500214 
M283.919464,577.639099 
	C279.114349,577.531433 274.303680,577.531067 269.505890,577.282043 
	C265.695557,577.084229 263.963684,579.181091 263.524261,582.492920 
	C263.246765,584.584167 263.872925,586.792664 263.615479,588.889832 
	C263.167694,592.537170 265.571747,593.477478 268.114410,593.289795 
	C275.807861,592.721985 283.637268,592.871765 291.004089,590.107178 
	C291.959656,582.682068 290.242737,579.330688 283.919464,577.639099 
M238.331467,459.257385 
	C241.385223,460.540192 243.423141,459.054352 244.997467,456.668427 
	C246.730896,454.041382 248.385193,451.393280 246.850067,447.972595 
	C245.311829,444.544891 242.937317,443.352173 239.306259,444.429169 
	C232.119400,446.560791 231.443695,452.547058 238.331467,459.257385 
M275.392761,573.599304 
	C278.376068,573.255432 281.571472,573.591187 284.182068,571.160767 
	C279.655640,568.524963 267.235809,568.557251 263.553986,571.188660 
	C266.606812,575.139526 270.915497,573.007019 275.392761,573.599304 
M265.772980,630.723511 
	C271.448792,630.552551 277.068970,630.034119 282.507355,628.074768 
	C275.449615,627.118835 268.464172,626.739380 261.437531,627.969971 
	C261.779877,631.023499 263.530212,630.570618 265.772980,630.723511 
M268.683807,653.796753 
	C273.714111,653.501526 278.906342,654.432190 283.622986,651.391174 
	C276.400177,650.553406 269.224457,650.465942 262.105743,652.581726 
	C263.871796,654.070129 265.860229,653.711548 268.683807,653.796753 
M278.757446,604.314392 
	C273.285400,602.827087 267.928741,602.816406 262.779053,605.553955 
	C268.290283,607.484253 273.642212,606.552368 278.757446,604.314392 
M271.873505,674.990906 
	C266.849213,674.677979 266.849213,674.677979 263.828918,676.861145 
	C268.852814,677.900391 273.612976,677.985352 278.333984,675.361877 
	C276.447937,675.231628 274.561859,675.101440 271.873505,674.990906 
M278.468994,662.990906 
	C280.428925,662.705688 282.588287,663.277161 284.260010,661.628174 
	C277.836609,661.701233 271.408234,661.478027 265.212311,663.451172 
	C269.389435,664.033264 273.509308,663.802673 278.468994,662.990906 
M282.919037,638.188110 
	C278.185425,638.609314 273.340912,637.953369 268.730377,639.580017 
	C273.739990,640.392090 278.668121,640.380920 282.919037,638.188110 
M274.466034,271.894287 
	C271.852631,272.975800 271.604950,274.979431 272.103638,277.942902 
	C275.563568,276.775238 278.419495,275.995239 274.466034,271.894287 
z"/>
</svg>